<svg width="119" height="22" viewBox="0 0 119 22" fill="none" xmlns="http://www.w3.org/2000/svg">
<path d="M9.39062 21.2344C6.26562 21.2344 3.95833 20.4219 2.46875 18.7969C0.989583 17.1719 0.25 14.6458 0.25 11.2188C0.25 4.625 3.34375 1.32812 9.53125 1.32812C10.375 1.32812 11.25 1.41146 12.1562 1.57812C13.0625 1.74479 13.8177 1.97917 14.4219 2.28125C15.0365 2.57292 15.3438 2.90104 15.3438 3.26562C15.3438 3.52604 15.2396 3.86979 15.0312 4.29688C14.8229 4.71354 14.5729 5.08333 14.2812 5.40625C14 5.72917 13.75 5.89062 13.5312 5.89062C13.4792 5.89062 13.3385 5.83854 13.1094 5.73438C12.6094 5.52604 12.0833 5.35417 11.5312 5.21875C10.9896 5.07292 10.2969 5 9.45312 5C7.81771 5 6.60417 5.52083 5.8125 6.5625C5.03125 7.59375 4.64062 9.15625 4.64062 11.25C4.64062 13.3438 5.03646 14.9219 5.82812 15.9844C6.61979 17.0469 7.80729 17.5781 9.39062 17.5781C10.2135 17.5781 10.9271 17.4948 11.5312 17.3281C12.1458 17.1615 12.7448 16.9479 13.3281 16.6875C13.3594 16.6771 13.4531 16.6406 13.6094 16.5781C13.7656 16.5052 13.8802 16.4688 13.9531 16.4688C14.224 16.4688 14.4844 16.6302 14.7344 16.9531C14.9844 17.2656 15.1875 17.625 15.3438 18.0312C15.5 18.4271 15.5781 18.7135 15.5781 18.8906C15.5781 19.401 15.2344 19.8333 14.5469 20.1875C13.8698 20.5417 13.0469 20.8073 12.0781 20.9844C11.1198 21.151 10.224 21.2344 9.39062 21.2344ZM20.7513 21.2344C19.4283 21.2344 18.4179 20.8646 17.72 20.125C17.0325 19.375 16.6888 18.2396 16.6888 16.7188V0.953125C16.6888 0.348958 17.246 0.046875 18.3606 0.046875H19.1419C19.7148 0.046875 20.1315 0.125 20.3919 0.28125C20.6627 0.427083 20.7981 0.651042 20.7981 0.953125V16.7656C20.7981 17.1927 20.8763 17.5 21.0325 17.6875C21.1888 17.875 21.4492 17.9688 21.8138 17.9688C21.9075 17.9688 22.0481 17.9479 22.2356 17.9062C22.2877 17.8958 22.3398 17.8854 22.3919 17.875C22.444 17.8646 22.5013 17.8594 22.5638 17.8594C22.72 17.8594 22.8606 18 22.9856 18.2812C23.121 18.5521 23.2252 18.8594 23.2981 19.2031C23.371 19.5365 23.4075 19.7552 23.4075 19.8594C23.4075 20.776 22.5221 21.2344 20.7513 21.2344ZM29.8619 21.2344C27.664 21.2344 25.9869 20.5885 24.8306 19.2969C23.6848 18.0052 23.1119 16.1458 23.1119 13.7188C23.1119 11.3021 23.6848 9.45312 24.8306 8.17188C25.9869 6.89062 27.664 6.25 29.8619 6.25C32.0598 6.25 33.7265 6.89062 34.8619 8.17188C36.0077 9.44271 36.5806 11.2917 36.5806 13.7188C36.5806 16.1458 36.0077 18.0052 34.8619 19.2969C33.7265 20.5885 32.0598 21.2344 29.8619 21.2344ZM29.8619 17.9688C30.7369 17.9688 31.3775 17.6146 31.7838 16.9062C32.2004 16.1979 32.4088 15.1354 32.4088 13.7188C32.4088 12.3125 32.2004 11.2552 31.7838 10.5469C31.3775 9.83854 30.7369 9.48438 29.8619 9.48438C28.1327 9.48438 27.2681 10.8958 27.2681 13.7188C27.2681 15.125 27.4765 16.1875 27.8931 16.9062C28.3202 17.6146 28.9765 17.9688 29.8619 17.9688ZM39.8631 21.0469C38.759 21.0469 38.2069 20.7552 38.2069 20.1719V11.3594C38.2069 10.026 38.1183 8.91667 37.9412 8.03125C37.8892 7.75 37.8631 7.55208 37.8631 7.4375C37.8631 7.22917 38.0558 7.0625 38.4412 6.9375C38.8371 6.80208 39.2798 6.70312 39.7694 6.64062C40.2694 6.57812 40.6704 6.54688 40.9725 6.54688C41.2954 6.54688 41.5194 6.66667 41.6444 6.90625C41.7798 7.14583 41.8996 7.49479 42.0037 7.95312L42.0975 8.35938C42.535 7.77604 43.1183 7.28125 43.8475 6.875C44.5871 6.45833 45.3787 6.25 46.2225 6.25C47.6183 6.25 48.6496 6.61458 49.3162 7.34375C49.9829 8.07292 50.3162 9.20312 50.3162 10.7344V20.1719C50.3162 20.7552 49.7537 21.0469 48.6287 21.0469H47.8631C46.759 21.0469 46.2069 20.7552 46.2069 20.1719V11.3594C46.2069 10.7969 46.0715 10.3698 45.8006 10.0781C45.5402 9.78646 45.1131 9.64062 44.5194 9.64062C44.0194 9.64062 43.5767 9.80729 43.1912 10.1406C42.8058 10.474 42.5142 10.8438 42.3162 11.25V20.1719C42.3162 20.7552 41.7537 21.0469 40.6287 21.0469H39.8631ZM59.0831 21.2344C56.6456 21.2344 54.8279 20.5833 53.63 19.2812C52.4321 17.9688 51.8331 16.151 51.8331 13.8281C51.8331 11.2135 52.4321 9.29688 53.63 8.07812C54.8279 6.85938 56.479 6.25 58.5831 6.25C59.979 6.25 61.1196 6.56771 62.005 7.20312C62.9008 7.83854 63.5519 8.69271 63.9581 9.76562C64.3748 10.8385 64.5831 12.0521 64.5831 13.4062C64.5831 13.5625 64.4894 13.7708 64.3019 14.0312C64.1248 14.2917 63.9217 14.526 63.6925 14.7344C63.4633 14.9427 63.2863 15.0469 63.1613 15.0469H56.0831C56.1769 16.1094 56.4894 16.8646 57.0206 17.3125C57.5623 17.75 58.3123 17.9688 59.2706 17.9688C59.7915 17.9688 60.2602 17.9115 60.6769 17.7969C61.104 17.6719 61.5571 17.5104 62.0363 17.3125C62.3279 17.1771 62.5258 17.1094 62.63 17.1094C62.8175 17.1094 63.0206 17.2448 63.2394 17.5156C63.4685 17.776 63.6613 18.0781 63.8175 18.4219C63.9842 18.7656 64.0675 19.0312 64.0675 19.2188C64.0675 19.6458 63.7758 20.0104 63.1925 20.3125C62.6196 20.6146 61.9373 20.8438 61.1456 21C60.3644 21.1562 59.6769 21.2344 59.0831 21.2344ZM60.5831 12.3125C60.5831 11.4583 60.4165 10.776 60.0831 10.2656C59.7498 9.74479 59.2498 9.48438 58.5831 9.48438C57.2081 9.48438 56.3748 10.4271 56.0831 12.3125H60.5831ZM67.975 21.0469C66.8604 21.0469 66.3031 20.7552 66.3031 20.1719V2.65625C66.3031 2.27083 66.3917 1.99479 66.5687 1.82812C66.7458 1.65104 67.0271 1.5625 67.4125 1.5625H76.6937C76.9854 1.5625 77.1937 1.67188 77.3187 1.89062C77.4542 2.10938 77.5219 2.46354 77.5219 2.95312V3.79688C77.5219 4.28646 77.4542 4.64062 77.3187 4.85938C77.1937 5.07812 76.9854 5.1875 76.6937 5.1875H70.5844V9.25H76.4906C76.7823 9.25 76.9958 9.35938 77.1312 9.57812C77.2667 9.79688 77.3344 10.1458 77.3344 10.625V11.4844C77.3344 11.974 77.2667 12.3333 77.1312 12.5625C76.9958 12.7812 76.7823 12.8906 76.4906 12.8906H70.5844V20.1719C70.5844 20.7552 70.0271 21.0469 68.9125 21.0469H67.975ZM82.8825 21.2344C81.5596 21.2344 80.5492 20.8646 79.8512 20.125C79.1637 19.375 78.82 18.2396 78.82 16.7188V0.953125C78.82 0.348958 79.3773 0.046875 80.4919 0.046875H81.2731C81.846 0.046875 82.2627 0.125 82.5231 0.28125C82.794 0.427083 82.9294 0.651042 82.9294 0.953125V16.7656C82.9294 17.1927 83.0075 17.5 83.1637 17.6875C83.32 17.875 83.5804 17.9688 83.945 17.9688C84.0387 17.9688 84.1794 17.9479 84.3669 17.9062C84.419 17.8958 84.471 17.8854 84.5231 17.875C84.5752 17.8646 84.6325 17.8594 84.695 17.8594C84.8512 17.8594 84.9919 18 85.1169 18.2812C85.2523 18.5521 85.3565 18.8594 85.4294 19.2031C85.5023 19.5365 85.5387 19.7552 85.5387 19.8594C85.5387 20.776 84.6533 21.2344 82.8825 21.2344ZM91.9931 21.2344C89.7952 21.2344 88.1181 20.5885 86.9619 19.2969C85.816 18.0052 85.2431 16.1458 85.2431 13.7188C85.2431 11.3021 85.816 9.45312 86.9619 8.17188C88.1181 6.89062 89.7952 6.25 91.9931 6.25C94.191 6.25 95.8577 6.89062 96.9931 8.17188C98.139 9.44271 98.7119 11.2917 98.7119 13.7188C98.7119 16.1458 98.139 18.0052 96.9931 19.2969C95.8577 20.5885 94.191 21.2344 91.9931 21.2344ZM91.9931 17.9688C92.8681 17.9688 93.5088 17.6146 93.915 16.9062C94.3317 16.1979 94.54 15.1354 94.54 13.7188C94.54 12.3125 94.3317 11.2552 93.915 10.5469C93.5088 9.83854 92.8681 9.48438 91.9931 9.48438C90.264 9.48438 89.3994 10.8958 89.3994 13.7188C89.3994 15.125 89.6077 16.1875 90.0244 16.9062C90.4515 17.6146 91.1077 17.9688 91.9931 17.9688ZM104.198 21.0469C103.27 21.0469 102.755 20.8542 102.651 20.4688L99.1663 7.5625C99.1246 7.4375 99.1038 7.29688 99.1038 7.14062C99.1038 6.66146 99.6819 6.42188 100.838 6.42188C101.588 6.42188 102.125 6.46875 102.448 6.5625C102.781 6.64583 102.974 6.79167 103.026 7L104.916 14.3281C104.958 14.474 105.01 14.6927 105.073 14.9844L105.213 15.5625C105.328 15.0938 105.442 14.6562 105.557 14.25L107.323 7C107.395 6.61458 107.911 6.42188 108.869 6.42188H109.526C109.942 6.42188 110.291 6.47396 110.573 6.57812C110.854 6.67188 111.015 6.8125 111.057 7L112.838 14.4219C112.849 14.5052 112.89 14.6719 112.963 14.9219L113.104 15.5625L113.432 14.3281L115.354 7C115.479 6.61458 116.026 6.42188 116.994 6.42188C118.14 6.42188 118.713 6.66146 118.713 7.14062C118.713 7.17188 118.692 7.3125 118.651 7.5625L115.385 20.4688C115.333 20.6562 115.166 20.8021 114.885 20.9062C114.604 21 114.26 21.0469 113.854 21.0469H112.494C111.578 21.0469 111.073 20.8542 110.979 20.4688L109.276 13.8594C109.203 13.599 109.104 13.1979 108.979 12.6562L108.651 13.8906L107.073 20.4688C107.031 20.6562 106.869 20.8021 106.588 20.9062C106.307 21 105.963 21.0469 105.557 21.0469H104.198Z" fill="#0071EE"/>
</svg>
